<?xml version="1.0" encoding="UTF-8" standalone="no"?>
<svg
   width="2452"
   height="2452"
   xml:space="preserve"
   overflow="hidden"
   version="1.1"
   id="svg27"
   sodipodi:docname="parastell_logo_sq.svg"
   inkscape:version="1.3.2 (091e20e, 2023-11-25, custom)"
   xmlns:inkscape="http://www.inkscape.org/namespaces/inkscape"
   xmlns:sodipodi="http://sodipodi.sourceforge.net/DTD/sodipodi-0.dtd"
   xmlns="http://www.w3.org/2000/svg"
   xmlns:svg="http://www.w3.org/2000/svg"><defs
     id="defs27" /><sodipodi:namedview
     id="namedview27"
     pagecolor="#6a6a6a"
     bordercolor="#000000"
     borderopacity="0.25"
     inkscape:showpageshadow="2"
     inkscape:pageopacity="0.0"
     inkscape:pagecheckerboard="0"
     inkscape:deskcolor="#d1d1d1"
     inkscape:zoom="0.23445262"
     inkscape:cx="699.50169"
     inkscape:cy="1546.1546"
     inkscape:window-width="1920"
     inkscape:window-height="1009"
     inkscape:window-x="-8"
     inkscape:window-y="-8"
     inkscape:window-maximized="1"
     inkscape:current-layer="svg27" /><g
     transform="translate(-1192.4216,-11.493287)"
     id="g27"><g
       id="g26"><path
         d="M 2181.25,1234.35 1848,508.387 2286.83,251 3045.72,706.376 3148,1561.03 2514.5,2188 l -617.01,-108.89 49.49,-501.58 z"
         fill="#00fb92"
         fill-rule="evenodd"
         fill-opacity="1"
         id="path1" /><path
         d="M 492,1169 C 220.276,1169 0,907.31 0,584.5 0,261.69 220.276,0 492,0 220.276,242.108 165.207,700.064 369,1022.87 c 34.965,55.39 76.379,104.59 123,146.13 z"
         stroke="#ff8ad8"
         stroke-width="45.8333"
         stroke-linecap="butt"
         stroke-linejoin="miter"
         stroke-miterlimit="8"
         stroke-opacity="1"
         fill="#ff8ad8"
         fill-rule="evenodd"
         fill-opacity="1"
         transform="matrix(-1,0,0,1,2692,653)"
         id="path2" /><path
         d="m 2200,292 c 521.91,0 945,423.315 945,945.5 0,522.19 -423.09,945.5 -945,945.5 -0.71,0 -1.42,0 -2.12,0"
         stroke="#0096ff"
         stroke-width="137.5"
         stroke-linecap="butt"
         stroke-linejoin="miter"
         stroke-miterlimit="8"
         stroke-opacity="1"
         fill="none"
         fill-rule="evenodd"
         id="path3" /><path
         d="m 1991.26,871.317 c 192.76,206.813 193.02,527.593 0.59,734.723"
         stroke="#0096ff"
         stroke-width="137.5"
         stroke-linecap="butt"
         stroke-linejoin="miter"
         stroke-miterlimit="8"
         stroke-opacity="1"
         fill="none"
         fill-rule="evenodd"
         id="path4" /><path
         d="M 2002.58,878.787 C 1860.21,765.889 1836.32,558.953 1949.21,416.581 2012.31,337.017 2108.6,291.046 2210.14,292.015"
         stroke="#0096ff"
         stroke-width="137.5"
         stroke-linecap="butt"
         stroke-linejoin="miter"
         stroke-miterlimit="8"
         stroke-opacity="1"
         fill="none"
         fill-rule="evenodd"
         id="path5" /><path
         d="M 124.77,587.678 C -17.8176,474.609 -41.7475,267.358 71.3214,124.77 134.509,45.086 230.952,-0.955685 332.644,0.0148426"
         stroke="#0096ff"
         stroke-width="137.5"
         stroke-linecap="butt"
         stroke-linejoin="miter"
         stroke-miterlimit="8"
         stroke-opacity="1"
         fill="none"
         fill-rule="evenodd"
         transform="matrix(1,0,0,-1,1877,2184)"
         id="path6" /><path
         d="m 2200.5,378.5 c 474.96,0 860,385.035 860,860 0,474.96 -385.04,860 -860,860 -0.65,0 -1.29,0 -1.93,0"
         stroke="#ffffff"
         stroke-width="68.75"
         stroke-linecap="butt"
         stroke-linejoin="miter"
         stroke-miterlimit="8"
         stroke-opacity="1"
         fill="none"
         fill-rule="evenodd"
         id="path7" /><path
         d="m 2046,801.022 c 229.72,246.018 230.04,627.808 0.71,874.188"
         stroke="#ffffff"
         stroke-width="68.75"
         stroke-linecap="butt"
         stroke-linejoin="miter"
         stroke-miterlimit="8"
         stroke-opacity="1"
         fill="none"
         fill-rule="evenodd"
         id="path8" /><path
         d="m 2059.27,813.836 c -105.88,-83.624 -123.79,-237.079 -40,-342.751 46.88,-59.12 118.52,-93.292 194.06,-92.574"
         stroke="#ffffff"
         stroke-width="68.75"
         stroke-linecap="butt"
         stroke-linejoin="miter"
         stroke-miterlimit="8"
         stroke-opacity="1"
         fill="none"
         fill-rule="evenodd"
         id="path9" /><path
         d="M 92.7747,435.336 C -13.1139,351.712 -31.0239,198.257 52.7716,92.5852 99.6521,33.4654 171.285,-0.706904 246.828,0.0111147"
         stroke="#ffffff"
         stroke-width="68.75"
         stroke-linecap="butt"
         stroke-linejoin="miter"
         stroke-miterlimit="8"
         stroke-opacity="1"
         fill="none"
         fill-rule="evenodd"
         transform="matrix(1,0,0,-1,1966.5,2098.5)"
         id="path10" /><path
         d="m 2054.34,598.354 c 306.23,183.216 425.82,618.346 267.13,971.886 -56.44,125.74 -143.7,229.5 -250.89,298.34"
         stroke="#ffffff"
         stroke-width="68.75"
         stroke-linecap="butt"
         stroke-linejoin="miter"
         stroke-miterlimit="8"
         stroke-opacity="1"
         fill="none"
         fill-rule="evenodd"
         id="path11" /><path
         d="M 0,0 0.00252625,241.865"
         stroke="#005493"
         stroke-width="91.6667"
         stroke-linecap="butt"
         stroke-linejoin="miter"
         stroke-miterlimit="8"
         stroke-opacity="1"
         fill="none"
         fill-rule="evenodd"
         transform="matrix(-1,0,0,1,1644,596)"
         id="path12" /><path
         d="m 2171.55,72.6677 c 643.05,-21.7955 1182,482.0483 1203.78,1125.3723 21.79,643.31 -481.84,1182.5 -1124.88,1204.29 -25.94,0.88 -51.89,0.89 -77.82,0.04"
         stroke="#005493"
         stroke-width="91.6667"
         stroke-linecap="butt"
         stroke-linejoin="miter"
         stroke-miterlimit="8"
         stroke-opacity="1"
         fill="none"
         fill-rule="evenodd"
         id="path13" /><path
         d="m 1644,612.17 c -0.92,-297.404 239.43,-539.2454 536.83,-540.168 2.27,-0.0071 4.54,2e-4 6.81,0.0219"
         stroke="#005493"
         stroke-width="91.6667"
         stroke-linecap="butt"
         stroke-linejoin="miter"
         stroke-miterlimit="8"
         stroke-opacity="1"
         fill="none"
         fill-rule="evenodd"
         id="path14" /><path
         d="M 0.0330096,533.044 C 3.31611,235.696 246.568,-2.81538 543.645,0.0251105"
         stroke="#005493"
         stroke-width="91.6667"
         stroke-linecap="butt"
         stroke-linejoin="miter"
         stroke-miterlimit="8"
         stroke-opacity="1"
         fill="none"
         fill-rule="evenodd"
         transform="matrix(1,0,0,-1,1644,2402)"
         id="path15" /><path
         d="m 1644,1636 v 242.1"
         stroke="#005493"
         stroke-width="91.6667"
         stroke-linecap="butt"
         stroke-linejoin="miter"
         stroke-miterlimit="8"
         stroke-opacity="1"
         fill="none"
         fill-rule="evenodd"
         id="path16" /><path
         d="m 1588.53,907.296 c 179.31,-301.47 563.51,-397.126 858.14,-213.654 294.62,183.471 388.11,576.598 208.8,878.058 -179.31,301.47 -563.51,397.13 -858.14,213.66 -86.11,-53.63 -158.26,-127.79 -210.28,-216.15"
         stroke="#ffffff"
         stroke-width="68.75"
         stroke-linecap="butt"
         stroke-linejoin="miter"
         stroke-miterlimit="8"
         stroke-opacity="1"
         fill="none"
         fill-rule="evenodd"
         id="path17" /><path
         d="m 1741,1144 c 0,-36.45 29.55,-66 66,-66 36.45,0 66,29.55 66,66 0,36.45 -29.55,66 -66,66 -36.45,0 -66,-29.55 -66,-66 z"
         fill="#ffb158"
         fill-rule="evenodd"
         fill-opacity="1"
         id="path18" /><path
         d="m 1742,1343 c 0,-36.45 29.55,-66 66,-66 36.45,0 66,29.55 66,66 0,36.45 -29.55,66 -66,66 -36.45,0 -66,-29.55 -66,-66 z"
         fill="#ffb158"
         fill-rule="evenodd"
         fill-opacity="1"
         id="path19" /><path
         d="m 1579,1038 c 0,-36.45 29.55,-66 66,-66 36.45,0 66,29.55 66,66 0,36.45 -29.55,66 -66,66 -36.45,0 -66,-29.55 -66,-66 z"
         fill="#ffb158"
         fill-rule="evenodd"
         fill-opacity="1"
         id="path20" /><path
         d="m 1579,1437 c 0,-36.45 29.55,-66 66,-66 36.45,0 66,29.55 66,66 0,36.45 -29.55,66 -66,66 -36.45,0 -66,-29.55 -66,-66 z"
         fill="#ffb158"
         fill-rule="evenodd"
         fill-opacity="1"
         id="path21" /><path
         d="m 1417,1144 c 0,-36.45 29.55,-66 66,-66 36.45,0 66,29.55 66,66 0,36.45 -29.55,66 -66,66 -36.45,0 -66,-29.55 -66,-66 z"
         fill="#ffb158"
         fill-rule="evenodd"
         fill-opacity="1"
         id="path22" /><path
         d="m 1415,1341 c 0,-36.45 29.55,-66 66,-66 36.45,0 66,29.55 66,66 0,36.45 -29.55,66 -66,66 -36.45,0 -66,-29.55 -66,-66 z"
         fill="#ffb158"
         fill-rule="evenodd"
         fill-opacity="1"
         id="path23" /><path
         d="m 1579,1239 c 0,-36.45 29.55,-66 66,-66 36.45,0 66,29.55 66,66 0,36.45 -29.55,66 -66,66 -36.45,0 -66,-29.55 -66,-66 z"
         fill="#ffb158"
         fill-rule="evenodd"
         fill-opacity="1"
         id="path24" /><path
         d="m 1649,835.5 c 0,-22.92 18.58,-41.5 41.5,-41.5 22.92,0 41.5,18.58 41.5,41.5 0,22.92 -18.58,41.5 -41.5,41.5 -22.92,0 -41.5,-18.58 -41.5,-41.5 z"
         fill="#ffffff"
         fill-rule="evenodd"
         fill-opacity="1"
         id="path25" /><path
         d="m 1648,1639.5 c 0,-22.92 18.58,-41.5 41.5,-41.5 22.92,0 41.5,18.58 41.5,41.5 0,22.92 -18.58,41.5 -41.5,41.5 -22.92,0 -41.5,-18.58 -41.5,-41.5 z"
         fill="#ffffff"
         fill-rule="evenodd"
         fill-opacity="1"
         id="path26" /></g></g></svg>
