<svg width="2012" height="2452" xmlns="http://www.w3.org/2000/svg" xmlns:xlink="http://www.w3.org/1999/xlink" xml:space="preserve" overflow="hidden"><g transform="translate(-1411 0)"><g><path d="M2181.25 1234.35 1848 508.387 2286.83 251 3045.72 706.376 3148 1561.03 2514.5 2188 1897.49 2079.11 1946.98 1577.53 2181.25 1234.35Z" fill="#00FB92" fill-rule="evenodd" fill-opacity="1"/><path d="M492 1169C220.276 1169 6.26381e-14 907.31 0 584.5-1.25276e-13 261.69 220.276 0 492-1.48829e-13 220.276 242.108 165.207 700.064 369 1022.87 403.965 1078.26 445.379 1127.46 492 1169Z" stroke="#FF8AD8" stroke-width="45.8333" stroke-linecap="butt" stroke-linejoin="miter" stroke-miterlimit="8" stroke-opacity="1" fill="#FF8AD8" fill-rule="evenodd" fill-opacity="1" transform="matrix(-1 0 0 1 2692 653)"/><path d="M2200 292C2721.91 292 3145 715.315 3145 1237.5 3145 1759.69 2721.91 2183 2200 2183 2199.29 2183 2198.58 2183 2197.88 2183" stroke="#0096FF" stroke-width="137.5" stroke-linecap="butt" stroke-linejoin="miter" stroke-miterlimit="8" stroke-opacity="1" fill="none" fill-rule="evenodd"/><path d="M1991.26 871.317C2184.02 1078.13 2184.28 1398.91 1991.85 1606.04" stroke="#0096FF" stroke-width="137.5" stroke-linecap="butt" stroke-linejoin="miter" stroke-miterlimit="8" stroke-opacity="1" fill="none" fill-rule="evenodd"/><path d="M2002.58 878.787C1860.21 765.889 1836.32 558.953 1949.21 416.581 2012.31 337.017 2108.6 291.046 2210.14 292.015" stroke="#0096FF" stroke-width="137.5" stroke-linecap="butt" stroke-linejoin="miter" stroke-miterlimit="8" stroke-opacity="1" fill="none" fill-rule="evenodd"/><path d="M124.77 587.678C-17.8176 474.609-41.7475 267.358 71.3214 124.77 134.509 45.086 230.952-0.955685 332.644 0.0148426" stroke="#0096FF" stroke-width="137.5" stroke-linecap="butt" stroke-linejoin="miter" stroke-miterlimit="8" stroke-opacity="1" fill="none" fill-rule="evenodd" transform="matrix(1 0 0 -1 1877 2184)"/><path d="M2200.5 378.5C2675.46 378.5 3060.5 763.535 3060.5 1238.5 3060.5 1713.46 2675.46 2098.5 2200.5 2098.5 2199.85 2098.5 2199.21 2098.5 2198.57 2098.5" stroke="#FFFFFF" stroke-width="68.75" stroke-linecap="butt" stroke-linejoin="miter" stroke-miterlimit="8" stroke-opacity="1" fill="none" fill-rule="evenodd"/><path d="M2046 801.022C2275.72 1047.04 2276.04 1428.83 2046.71 1675.21" stroke="#FFFFFF" stroke-width="68.75" stroke-linecap="butt" stroke-linejoin="miter" stroke-miterlimit="8" stroke-opacity="1" fill="none" fill-rule="evenodd"/><path d="M2059.27 813.836C1953.39 730.212 1935.48 576.757 2019.27 471.085 2066.15 411.965 2137.79 377.793 2213.33 378.511" stroke="#FFFFFF" stroke-width="68.75" stroke-linecap="butt" stroke-linejoin="miter" stroke-miterlimit="8" stroke-opacity="1" fill="none" fill-rule="evenodd"/><path d="M92.7747 435.336C-13.1139 351.712-31.0239 198.257 52.7716 92.5852 99.6521 33.4654 171.285-0.706904 246.828 0.0111147" stroke="#FFFFFF" stroke-width="68.75" stroke-linecap="butt" stroke-linejoin="miter" stroke-miterlimit="8" stroke-opacity="1" fill="none" fill-rule="evenodd" transform="matrix(1 0 0 -1 1966.5 2098.5)"/><path d="M2054.34 598.354C2360.57 781.57 2480.16 1216.7 2321.47 1570.24 2265.03 1695.98 2177.77 1799.74 2070.58 1868.58" stroke="#FFFFFF" stroke-width="68.75" stroke-linecap="butt" stroke-linejoin="miter" stroke-miterlimit="8" stroke-opacity="1" fill="none" fill-rule="evenodd"/><path d="M0 0 0.00252625 241.865" stroke="#005493" stroke-width="91.6667" stroke-linecap="butt" stroke-linejoin="miter" stroke-miterlimit="8" stroke-opacity="1" fill="none" fill-rule="evenodd" transform="matrix(-1 0 0 1 1644 596)"/><path d="M2171.55 72.6677C2814.6 50.8722 3353.55 554.716 3375.33 1198.04 3397.12 1841.35 2893.49 2380.54 2250.45 2402.33 2224.51 2403.21 2198.56 2403.22 2172.63 2402.37" stroke="#005493" stroke-width="91.6667" stroke-linecap="butt" stroke-linejoin="miter" stroke-miterlimit="8" stroke-opacity="1" fill="none" fill-rule="evenodd"/><path d="M1644 612.17C1643.08 314.766 1883.43 72.9246 2180.83 72.002 2183.1 71.9949 2185.37 72.0022 2187.64 72.0239" stroke="#005493" stroke-width="91.6667" stroke-linecap="butt" stroke-linejoin="miter" stroke-miterlimit="8" stroke-opacity="1" fill="none" fill-rule="evenodd"/><path d="M0.0330096 533.044C3.31611 235.696 246.568-2.81538 543.645 0.0251105" stroke="#005493" stroke-width="91.6667" stroke-linecap="butt" stroke-linejoin="miter" stroke-miterlimit="8" stroke-opacity="1" fill="none" fill-rule="evenodd" transform="matrix(1 0 0 -1 1644 2402)"/><path d="M1644 1636 1644 1878.1" stroke="#005493" stroke-width="91.6667" stroke-linecap="butt" stroke-linejoin="miter" stroke-miterlimit="8" stroke-opacity="1" fill="none" fill-rule="evenodd"/><path d="M1588.53 907.296C1767.84 605.826 2152.04 510.17 2446.67 693.642 2741.29 877.113 2834.78 1270.24 2655.47 1571.7 2476.16 1873.17 2091.96 1968.83 1797.33 1785.36 1711.22 1731.73 1639.07 1657.57 1587.05 1569.21" stroke="#FFFFFF" stroke-width="68.75" stroke-linecap="butt" stroke-linejoin="miter" stroke-miterlimit="8" stroke-opacity="1" fill="none" fill-rule="evenodd"/><path d="M1741 1144C1741 1107.55 1770.55 1078 1807 1078 1843.45 1078 1873 1107.55 1873 1144 1873 1180.45 1843.45 1210 1807 1210 1770.55 1210 1741 1180.45 1741 1144Z" fill="#FFB158" fill-rule="evenodd" fill-opacity="1"/><path d="M1742 1343C1742 1306.55 1771.55 1277 1808 1277 1844.45 1277 1874 1306.55 1874 1343 1874 1379.45 1844.45 1409 1808 1409 1771.55 1409 1742 1379.45 1742 1343Z" fill="#FFB158" fill-rule="evenodd" fill-opacity="1"/><path d="M1579 1038C1579 1001.55 1608.55 972 1645 972 1681.45 972 1711 1001.55 1711 1038 1711 1074.45 1681.45 1104 1645 1104 1608.55 1104 1579 1074.45 1579 1038Z" fill="#FFB158" fill-rule="evenodd" fill-opacity="1"/><path d="M1579 1437C1579 1400.55 1608.55 1371 1645 1371 1681.45 1371 1711 1400.55 1711 1437 1711 1473.45 1681.45 1503 1645 1503 1608.55 1503 1579 1473.45 1579 1437Z" fill="#FFB158" fill-rule="evenodd" fill-opacity="1"/><path d="M1417 1144C1417 1107.55 1446.55 1078 1483 1078 1519.45 1078 1549 1107.55 1549 1144 1549 1180.45 1519.45 1210 1483 1210 1446.55 1210 1417 1180.45 1417 1144Z" fill="#FFB158" fill-rule="evenodd" fill-opacity="1"/><path d="M1415 1341C1415 1304.55 1444.55 1275 1481 1275 1517.45 1275 1547 1304.55 1547 1341 1547 1377.45 1517.45 1407 1481 1407 1444.55 1407 1415 1377.45 1415 1341Z" fill="#FFB158" fill-rule="evenodd" fill-opacity="1"/><path d="M1579 1239C1579 1202.55 1608.55 1173 1645 1173 1681.45 1173 1711 1202.55 1711 1239 1711 1275.45 1681.45 1305 1645 1305 1608.55 1305 1579 1275.45 1579 1239Z" fill="#FFB158" fill-rule="evenodd" fill-opacity="1"/><path d="M1649 835.5C1649 812.58 1667.58 794 1690.5 794 1713.42 794 1732 812.58 1732 835.5 1732 858.42 1713.42 877 1690.5 877 1667.58 877 1649 858.42 1649 835.5Z" fill="#FFFFFF" fill-rule="evenodd" fill-opacity="1"/><path d="M1648 1639.5C1648 1616.58 1666.58 1598 1689.5 1598 1712.42 1598 1731 1616.58 1731 1639.5 1731 1662.42 1712.42 1681 1689.5 1681 1666.58 1681 1648 1662.42 1648 1639.5Z" fill="#FFFFFF" fill-rule="evenodd" fill-opacity="1"/></g></g></svg>