<svg width="2640" height="853" xmlns="http://www.w3.org/2000/svg" xmlns:xlink="http://www.w3.org/1999/xlink" xml:space="preserve" overflow="hidden"><g transform="translate(-944 -870)"><g><text fill="#0096FF" fill-opacity="1" font-family="Aptos,Aptos_MSFontService,sans-serif" font-style="italic" font-variant="normal" font-weight="700" font-stretch="normal" font-size="403" text-anchor="start" direction="ltr" writing-mode="lr-tb" unicode-bidi="normal" text-decoration="none" transform="matrix(1 0 0 1 1671.64 1365)">Para</text><text fill="#005493" fill-opacity="1" font-family="Aptos,Aptos_MSFontService,sans-serif" font-style="italic" font-variant="normal" font-weight="700" font-stretch="normal" font-size="403" text-anchor="start" direction="ltr" writing-mode="lr-tb" unicode-bidi="normal" text-decoration="none" transform="matrix(1 0 0 1 2496.57 1365)">Stell</text><g><g><g><path d="M637.463 360.734 540.071 148.574 668.318 73.3539 890.101 206.436 919.992 456.205 734.854 639.435 554.535 607.612 568.998 461.028 637.463 360.734Z" fill="#00FB92" fill-rule="evenodd" fill-opacity="1" transform="matrix(1 0 0 1.00057 534.64 879)"/><path d="M143.785 341.636C64.3749 341.636 1.83058e-14 265.158 0 170.818-3.66115e-14 76.478 64.3749 0 143.785-4.34947e-14 64.3749 70.7552 48.2812 204.591 107.839 298.93 118.057 315.118 130.16 329.496 143.785 341.636Z" stroke="#FF8AD8" stroke-width="13.3946" stroke-linecap="butt" stroke-linejoin="miter" stroke-miterlimit="8" stroke-opacity="1" fill="#FF8AD8" fill-rule="evenodd" fill-opacity="1" transform="matrix(-1 0 0 1.00057 1321.37 1069.95)"/><path d="M642.942 85.336C795.468 85.336 919.115 209.048 919.115 361.655 919.115 514.263 795.468 637.974 642.942 637.974 642.735 637.974 642.527 637.974 642.323 637.974" stroke="#0096FF" stroke-width="40.1839" stroke-linecap="butt" stroke-linejoin="miter" stroke-miterlimit="8" stroke-opacity="1" fill="none" fill-rule="evenodd" transform="matrix(1 0 0 1.00057 534.64 879)"/><path d="M581.939 254.639C638.272 315.08 638.348 408.826 582.111 469.359" stroke="#0096FF" stroke-width="40.1839" stroke-linecap="butt" stroke-linejoin="miter" stroke-miterlimit="8" stroke-opacity="1" fill="none" fill-rule="evenodd" transform="matrix(1 0 0 1.00057 534.64 879)"/><path d="M585.247 256.822C543.64 223.828 536.658 163.352 569.65 121.744 588.09 98.492 616.231 85.0572 645.906 85.3403" stroke="#0096FF" stroke-width="40.1839" stroke-linecap="butt" stroke-linejoin="miter" stroke-miterlimit="8" stroke-opacity="1" fill="none" fill-rule="evenodd" transform="matrix(1 0 0 1.00057 534.64 879)"/><path d="M36.4636 171.747C-5.20713 138.703-12.2006 78.1344 20.8434 36.4636 39.3098 13.1762 67.4949-0.279296 97.214 0.0043377" stroke="#0096FF" stroke-width="40.1839" stroke-linecap="butt" stroke-linejoin="miter" stroke-miterlimit="8" stroke-opacity="1" fill="none" fill-rule="evenodd" transform="matrix(1 0 0 -1.00057 1083.19 1517.63)"/><path d="M643.088 110.615C781.894 110.615 894.42 223.14 894.42 361.947 894.42 500.753 781.894 613.279 643.088 613.279 642.898 613.279 642.711 613.279 642.524 613.279" stroke="#FFFFFF" stroke-width="20.0919" stroke-linecap="butt" stroke-linejoin="miter" stroke-miterlimit="8" stroke-opacity="1" fill="none" fill-rule="evenodd" transform="matrix(1 0 0 1.00057 534.64 879)"/><path d="M597.936 234.096C665.071 305.994 665.165 417.57 598.144 489.574" stroke="#FFFFFF" stroke-width="20.0919" stroke-linecap="butt" stroke-linejoin="miter" stroke-miterlimit="8" stroke-opacity="1" fill="none" fill-rule="evenodd" transform="matrix(1 0 0 1.00057 534.64 879)"/><path d="M601.814 237.841C570.871 213.402 565.637 168.555 590.124 137.673 603.825 120.395 624.762 110.409 646.838 110.618" stroke="#FFFFFF" stroke-width="20.0919" stroke-linecap="butt" stroke-linejoin="miter" stroke-miterlimit="8" stroke-opacity="1" fill="none" fill-rule="evenodd" transform="matrix(1 0 0 1.00057 534.64 879)"/><path d="M27.1131 127.225C-3.83249 102.787-9.06662 57.9399 15.4223 27.0577 29.123 9.78014 50.0574-0.20659 72.1346 0.00324823" stroke="#FFFFFF" stroke-width="20.0919" stroke-linecap="butt" stroke-linejoin="miter" stroke-miterlimit="8" stroke-opacity="1" fill="none" fill-rule="evenodd" transform="matrix(1 0 0 -1.00057 1109.34 1492.63)"/><path d="M600.374 174.867C689.868 228.411 724.818 355.576 678.441 458.897 661.947 495.644 636.445 525.968 605.12 546.086" stroke="#FFFFFF" stroke-width="20.0919" stroke-linecap="butt" stroke-linejoin="miter" stroke-miterlimit="8" stroke-opacity="1" fill="none" fill-rule="evenodd" transform="matrix(1 0 0 1.00057 534.64 879)"/><path d="M0 0 0.000738288 70.6842" stroke="#005493" stroke-width="26.7893" stroke-linecap="butt" stroke-linejoin="miter" stroke-miterlimit="8" stroke-opacity="1" fill="none" fill-rule="evenodd" transform="matrix(-1 0 0 1.00057 1015.09 1053.28)"/><path d="M634.628 21.2369C822.557 14.8672 980.063 162.114 986.428 350.123 992.796 538.128 845.612 695.704 657.686 702.072 650.105 702.33 642.521 702.332 634.943 702.084" stroke="#005493" stroke-width="26.7893" stroke-linecap="butt" stroke-linejoin="miter" stroke-miterlimit="8" stroke-opacity="1" fill="none" fill-rule="evenodd" transform="matrix(1 0 0 1.00057 534.64 879)"/><path d="M480.453 178.904C480.184 91.9892 550.426 21.312 637.34 21.0423 638.003 21.0403 638.667 21.0424 639.33 21.0487" stroke="#005493" stroke-width="26.7893" stroke-linecap="butt" stroke-linejoin="miter" stroke-miterlimit="8" stroke-opacity="1" fill="none" fill-rule="evenodd" transform="matrix(1 0 0 1.00057 534.64 879)"/><path d="M0.00964694 155.78C0.969121 68.8813 72.0586-0.822785 158.878 0.00733845" stroke="#005493" stroke-width="26.7893" stroke-linecap="butt" stroke-linejoin="miter" stroke-miterlimit="8" stroke-opacity="1" fill="none" fill-rule="evenodd" transform="matrix(1 0 0 -1.00057 1015.09 1581.38)"/><path d="M480.453 478.115 480.453 548.868" stroke="#005493" stroke-width="26.7893" stroke-linecap="butt" stroke-linejoin="miter" stroke-miterlimit="8" stroke-opacity="1" fill="none" fill-rule="evenodd" transform="matrix(1 0 0 1.00057 534.64 879)"/><path d="M464.242 265.154C516.645 177.05 628.926 149.095 715.031 202.714 801.132 256.333 828.454 371.223 776.052 459.324 723.649 547.427 611.368 575.384 525.263 521.765 500.098 506.092 479.012 484.419 463.81 458.596" stroke="#FFFFFF" stroke-width="20.0919" stroke-linecap="butt" stroke-linejoin="miter" stroke-miterlimit="8" stroke-opacity="1" fill="none" fill-rule="evenodd" transform="matrix(1 0 0 1.00057 534.64 879)"/><path d="M508.801 334.33C508.801 323.678 517.437 315.042 528.089 315.042 538.742 315.042 547.378 323.678 547.378 334.33 547.378 344.982 538.742 353.618 528.089 353.618 517.437 353.618 508.801 344.982 508.801 334.33Z" fill="#FFB158" fill-rule="evenodd" fill-opacity="1" transform="matrix(1 0 0 1.00057 534.64 879)"/><path d="M509.093 392.487C509.093 381.835 517.729 373.199 528.382 373.199 539.034 373.199 547.67 381.835 547.67 392.487 547.67 403.139 539.034 411.775 528.382 411.775 517.729 411.775 509.093 403.139 509.093 392.487Z" fill="#FFB158" fill-rule="evenodd" fill-opacity="1" transform="matrix(1 0 0 1.00057 534.64 879)"/><path d="M461.457 303.352C461.457 292.699 470.093 284.064 480.745 284.064 491.398 284.064 500.034 292.699 500.034 303.352 500.034 314.004 491.398 322.64 480.745 322.64 470.093 322.64 461.457 314.004 461.457 303.352Z" fill="#FFB158" fill-rule="evenodd" fill-opacity="1" transform="matrix(1 0 0 1.00057 534.64 879)"/><path d="M461.457 419.958C461.457 409.306 470.093 400.67 480.745 400.67 491.398 400.67 500.034 409.306 500.034 419.958 500.034 430.611 491.398 439.246 480.745 439.246 470.093 439.246 461.457 430.611 461.457 419.958Z" fill="#FFB158" fill-rule="evenodd" fill-opacity="1" transform="matrix(1 0 0 1.00057 534.64 879)"/><path d="M414.113 334.33C414.113 323.678 422.749 315.042 433.401 315.042 444.054 315.042 452.69 323.678 452.69 334.33 452.69 344.982 444.054 353.618 433.401 353.618 422.749 353.618 414.113 344.982 414.113 334.33Z" fill="#FFB158" fill-rule="evenodd" fill-opacity="1" transform="matrix(1 0 0 1.00057 534.64 879)"/><path d="M413.529 391.902C413.529 381.25 422.165 372.614 432.817 372.614 443.469 372.614 452.105 381.25 452.105 391.902 452.105 402.555 443.469 411.191 432.817 411.191 422.165 411.191 413.529 402.555 413.529 391.902Z" fill="#FFB158" fill-rule="evenodd" fill-opacity="1" transform="matrix(1 0 0 1.00057 534.64 879)"/><path d="M461.457 362.093C461.457 351.441 470.093 342.805 480.745 342.805 491.398 342.805 500.034 351.441 500.034 362.093 500.034 372.746 491.398 381.382 480.745 381.382 470.093 381.382 461.457 372.746 461.457 362.093Z" fill="#FFB158" fill-rule="evenodd" fill-opacity="1" transform="matrix(1 0 0 1.00057 534.64 879)"/><path d="M481.914 244.172C481.914 237.474 487.344 232.044 494.043 232.044 500.741 232.044 506.171 237.474 506.171 244.172 506.171 250.87 500.741 256.3 494.043 256.3 487.344 256.3 481.914 250.87 481.914 244.172Z" fill="#FFFFFF" fill-rule="evenodd" fill-opacity="1" transform="matrix(1 0 0 1.00057 534.64 879)"/><path d="M481.622 479.138C481.622 472.44 487.052 467.01 493.75 467.01 500.449 467.01 505.879 472.44 505.879 479.138 505.879 485.836 500.449 491.266 493.75 491.266 487.052 491.266 481.622 485.836 481.622 479.138Z" fill="#FFFFFF" fill-rule="evenodd" fill-opacity="1" transform="matrix(1 0 0 1.00057 534.64 879)"/></g></g></g></g></g></svg>