<?xml version="1.0" encoding="UTF-8" standalone="no"?>
<svg
   width="3085"
   height="900"
   xml:space="preserve"
   overflow="hidden"
   version="1.1"
   id="svg10"
   sodipodi:docname="parastell_logo_with_text.svg"
   inkscape:version="1.4.2 (ebf0e940, 2025-05-08)"
   xmlns:inkscape="http://www.inkscape.org/namespaces/inkscape"
   xmlns:sodipodi="http://sodipodi.sourceforge.net/DTD/sodipodi-0.dtd"
   xmlns="http://www.w3.org/2000/svg"
   xmlns:svg="http://www.w3.org/2000/svg"><g
     id="text3"
     style="font-weight:bold;font-size:513.351px;font-family:'Arial Hebrew';-inkscape-font-specification:'Arial Hebrew Bold';fill:#004375;stroke:#ff8833;stroke-width:68.3997"
     aria-label="ParaStell"
     inkscape:label="Text"><path
       style="font-style:italic;font-family:Arial;-inkscape-font-specification:'Arial Bold Italic';fill:#ffab4c;stroke:none"
       d="M 910.69923,633.73358 H 835 L 911.95252,266.2665 h 149.39318 q 39.8549,0 62.9156,9.52507 23.3113,9.2744 36.8469,31.0818 13.5357,21.55673 13.5357,51.63589 0,27.82322 -10.7784,54.14249 -10.7784,26.31926 -26.5699,42.11082 -15.5409,15.79156 -33.5884,24.06333 -18.0475,8.02111 -48.628,12.28233 -17.7968,2.50659 -66.67547,2.50659 h -48.37732 z m 41.86016,-201.02906 h 23.31135 q 59.90766,0 79.96046,-7.51979 20.0528,-7.51979 31.5831,-24.06333 11.5303,-16.54353 11.5303,-36.34565 0,-13.28496 -6.0158,-21.80739 -5.7652,-8.52243 -16.5435,-12.28232 -10.5277,-4.01056 -47.3747,-4.01056 h -54.1425 z m 326.10821,10.27705 -70.1847,-6.01583 q 12.0317,-35.59368 41.8602,-55.64645 30.0792,-20.05277 79.4591,-20.05277 51.3852,0 75.9499,20.80475 24.5646,20.55409 24.5646,50.38259 0,12.03167 -2.2559,25.56729 -2.0053,13.53562 -14.7889,71.18735 -10.5277,47.62534 -10.5277,66.67547 0,17.04486 6.0158,37.84961 h -69.934 q -4.2613,-14.53826 -5.2639,-30.07916 -15.7916,17.54618 -36.3456,27.07125 -20.5541,9.2744 -41.3589,9.2744 -33.0871,0 -54.6438,-21.55673 -21.5567,-21.80739 -21.5567,-55.89711 0,-38.10027 23.562,-60.9103 23.8126,-22.81003 84.7229,-27.57256 51.3853,-4.26122 68.6808,-10.27705 4.5119,-15.03958 4.5119,-24.06333 0,-11.53034 -9.2744,-19.30079 -9.2744,-7.77045 -27.5726,-7.77045 -19.3008,0 -30.5805,8.02111 -11.029,7.77045 -15.0396,22.30871 z m 68.4301,66.67547 q -6.5171,1.75462 -17.2955,3.25858 -54.1425,6.51715 -70.686,19.05013 -11.781,9.02375 -11.781,24.31399 0,12.53299 9.0237,21.30607 9.0238,8.52243 23.8127,8.52243 16.2929,0 30.5805,-7.77045 14.5382,-8.02111 21.5567,-20.30343 7.2691,-12.53298 12.7836,-38.85225 z m 167.19,-142.12403 h 67.1768 l -10.7784,51.63589 q 37.599,-57.90238 81.4644,-57.90238 15.5409,0 33.3378,7.77045 l -27.5726,58.90502 q -9.7757,-3.50924 -20.8048,-3.50924 -18.5488,0 -37.8496,14.03695 -19.0501,14.03694 -29.8285,37.59895 -10.7783,23.31135 -21.306,74.19526 l -17.5462,83.46967 h -71.9393 z m 249.657,75.44856 -70.1847,-6.01583 q 12.0317,-35.59368 41.8602,-55.64645 30.0792,-20.05277 79.4591,-20.05277 51.3852,0 75.9499,20.80475 24.5646,20.55409 24.5646,50.38259 0,12.03167 -2.2559,25.56729 -2.0053,13.53562 -14.7889,71.18735 -10.5277,47.62534 -10.5277,66.67547 0,17.04486 6.0158,37.84961 h -69.934 q -4.2613,-14.53826 -5.2639,-30.07916 -15.7916,17.54618 -36.3456,27.07125 -20.5541,9.2744 -41.3589,9.2744 -33.0871,0 -54.6438,-21.55673 -21.5567,-21.80739 -21.5567,-55.89711 0,-38.10027 23.562,-60.9103 23.8126,-22.81003 84.7229,-27.57256 51.3853,-4.26122 68.6808,-10.27705 4.5119,-15.03958 4.5119,-24.06333 0,-11.53034 -9.2744,-19.30079 -9.2744,-7.77045 -27.5726,-7.77045 -19.3008,0 -30.5805,8.02111 -11.029,7.77045 -15.0396,22.30871 z m 68.4301,66.67547 q -6.5171,1.75462 -17.2955,3.25858 -54.1425,6.51715 -70.686,19.05013 -11.781,9.02375 -11.781,24.31399 0,12.53299 9.0237,21.30607 9.0238,8.52243 23.8127,8.52243 16.2929,0 30.5805,-7.77045 14.5382,-8.02111 21.5567,-20.30343 7.2691,-12.53298 12.7836,-38.85225 z"
       id="path7" /><path
       style="font-style:italic;font-family:Arial;-inkscape-font-specification:'Arial Bold Italic';stroke:none"
       d="m 1959.9607,514.67024 71.9393,-3.7599 q 1.504,34.34038 11.781,46.37204 16.5436,19.55146 61.161,19.55146 37.0976,0 53.6412,-13.28497 16.5435,-13.28496 16.5435,-32.08444 0,-16.29287 -13.5356,-27.57256 -9.5251,-8.27177 -52.3879,-26.82058 -42.6121,-18.54882 -62.4143,-30.83114 -19.5514,-12.53299 -30.8311,-32.3351 -11.2797,-19.80212 -11.2797,-46.37204 0,-46.37204 33.5884,-76.95252 33.5884,-30.58048 97.256,-30.58048 64.6702,0 100.0132,30.32982 35.5937,30.32982 39.1029,80.71241 l -72.4407,3.25858 q -2.7572,-26.31927 -19.0501,-40.35621 -16.2929,-14.03694 -48.1267,-14.03694 -31.3324,0 -44.868,11.02902 -13.285,11.02903 -13.285,27.82323 0,15.79156 12.2823,26.0686 12.2824,10.52771 54.3932,28.82587 63.4169,27.3219 80.7124,44.36676 25.8179,25.06597 25.8179,64.41954 0,48.62797 -38.6015,83.21901 -38.351,34.34037 -107.0317,34.34037 -47.3747,0 -82.2164,-15.79156 -34.591,-16.04222 -48.8786,-44.36676 -14.2876,-28.32454 -13.285,-65.17151 z m 348.417,-93.74672 11.029,-53.39051 h 35.0923 l 8.7731,-42.61215 82.4671,-49.63061 -19.3008,92.24276 h 43.8654 l -11.029,53.39051 h -44.1161 l -23.3114,111.54355 q -6.2665,30.32982 -6.2665,34.59104 0,8.27177 5.2639,13.0343 5.2638,4.51188 19.0501,4.51188 4.7626,0 23.8127,-1.75462 l -11.2797,53.39051 q -18.5488,3.75989 -38.1003,3.75989 -38.1002,0 -55.3958,-14.53826 -17.2955,-14.78892 -17.2955,-40.85752 0,-12.28233 9.2744,-56.64909 l 22.3087,-107.03168 z m 412.0844,102.01849 h -180.475 q -0.2506,4.26121 -0.2506,6.51715 0,26.56992 15.0395,42.8628 15.2903,16.29288 37.0977,16.29288 35.8443,0 55.8971,-37.09763 l 64.4195,10.77836 q -18.7995,38.85225 -50.3826,58.40371 -31.3324,19.30079 -70.4353,19.30079 -53.6412,0 -87.2296,-33.83905 -33.5884,-34.08972 -33.5884,-89.98683 0,-54.6438 30.3298,-97.25595 41.3589,-57.65172 118.0607,-57.65172 48.8787,0 77.7045,30.32982 28.8259,30.07916 28.8259,84.47231 0,26.0686 -5.0132,46.87336 z m -60.6597,-43.86545 q 0.2507,-4.76253 0.2507,-7.26913 0,-29.57784 -13.285,-44.36676 -13.2849,-14.78892 -35.5936,-14.78892 -22.3087,0 -40.1056,16.7942 -17.5462,16.7942 -23.8126,49.63061 z m 86.4776,154.65702 76.9525,-367.46708 h 71.6887 l -76.7019,367.46708 z m 142.6255,0 76.9525,-367.46708 h 71.6887 l -76.7019,367.46708 z"
       id="path8" /></g><defs
     id="defs10" /><sodipodi:namedview
     id="namedview10"
     pagecolor="#000000"
     bordercolor="#000000"
     borderopacity="0.25"
     inkscape:showpageshadow="2"
     inkscape:pageopacity="0.0"
     inkscape:pagecheckerboard="true"
     inkscape:deskcolor="#d1d1d1"
     inkscape:zoom="0.31686161"
     inkscape:cx="1364.9492"
     inkscape:cy="492.3285"
     inkscape:window-width="1792"
     inkscape:window-height="981"
     inkscape:window-x="0"
     inkscape:window-y="25"
     inkscape:window-maximized="0"
     inkscape:current-layer="text3" /><g
     id="g10"
     inkscape:label="Logo"
     transform="matrix(1.0536788,0,0,1.0536788,35.794197,0.2033564)"><path
       d="m 245.88717,184.61467 c -18.45512,0.30575 -35.8205,8.86144 -47.30207,23.36861 -5.98754,7.56585 -9.92552,16.07209 -11.88746,24.86194 11.35266,-2.09378 22.89768,-3.15834 34.49004,-3.15633 34.22315,0.0101 68.85721,9.3034 100.16363,28.83456 91.07003,56.81959 119.90388,178.5018 64.56572,271.71374 -42.5362,71.64855 -122.82161,105.82496 -199.05321,91.99903 2.01431,8.53252 5.89791,16.77941 11.72128,24.13638 11.48258,14.50818 28.84594,23.06386 47.30207,23.36863 132.88712,-1.10294 240.06156,-109.16297 240.06156,-242.56324 0,-133.40137 -107.17444,-241.45939 -240.06156,-242.56332 z m -45.05511,66.29449 c -5.09721,0.60852 -10.1632,1.44899 -15.18085,2.51758 1.70008,14.39004 8.48327,28.18374 20.01923,38.53458 l 0.22258,-0.20888 c 0.59221,0.63672 1.18039,1.27546 1.76353,1.91722 0.33236,0.27445 0.66774,0.54587 1.00715,0.81428 l -0.1269,0.16246 c 67.4623,75.2751 67.48547,189.7628 0,265.06208 l 0.12892,0.16346 c -0.34344,0.27143 -0.68386,0.54588 -1.01924,0.82335 -0.50761,0.56008 -1.01924,1.11603 -1.53491,1.67097 l -0.19941,-0.18562 c -11.83408,10.50826 -18.72605,24.6167 -20.32642,39.30948 4.92096,1.0555 9.86408,1.8849 14.81526,2.49141 l -0.11582,-0.1817 c 29.65166,-19.07804 54.01476,-48.00244 69.82508,-83.29095 43.60379,-97.32577 11.77969,-217.02621 -69.2782,-269.59972 z"
       fill="#fb7a1b"
       fill-rule="nonzero"
       fill-opacity="1"
       id="path2"
       style="stroke-width:1.0081" /><path
       d="m 233.41052,250.19176 c 74.08435,64.09276 98.69419,181.26856 55.09242,278.58838 -13.40524,29.92128 -32.53213,55.90529 -55.92936,76.03279 54.08526,-3.78892 105.56097,-33.60334 136.01635,-84.9024 49.82701,-83.92859 23.8293,-193.25099 -57.89634,-244.24025 -24.31172,-15.16807 -50.78078,-23.48566 -77.28307,-25.47852 z"
       fill="#c51010"
       fill-rule="evenodd"
       fill-opacity="1"
       id="path3"
       style="stroke-width:1.0081" /><path
       d="m 243.68552,128.89358 v 0.0177 c -34.81333,0.6136 -67.63855,16.8154 -89.34174,44.23247 v 10e-4 h -0.001 c -18.61324,23.51898 -26.68358,52.14969 -24.88278,80.05898 11.542,-6.31668 23.65506,-11.40422 36.12969,-15.20936 1.48656,-15.05607 7.14677,-29.86186 17.19718,-42.56068 h 0.001 c 14.87771,-18.79863 37.22347,-30.07274 61.04471,-30.96877 v -0.0575 c 0.65666,0 1.31232,0.002 1.96798,0.007 0.62847,-0.008 1.25894,-0.0101 1.88942,-0.004 v 0.0252 c 142.95667,2.06955 258.42,119.02841 258.42,262.74225 0,143.71374 -115.46333,260.6726 -258.42,262.74321 v 0.0242 c -0.63148,0.0101 -1.26095,0.0101 -1.89043,0 -0.65566,0.0101 -1.31131,0.0101 -1.96697,0.0101 h -0.56602 v -0.0806 c -23.60974,-1.05348 -45.71781,-12.29626 -60.47869,-30.94556 -9.88623,-12.49094 -15.52429,-27.01926 -17.12164,-41.818 -12.46758,-3.79708 -24.7166,-8.94425 -36.55572,-15.48885 -1.57015,27.65498 6.53644,55.95374 24.97242,79.24663 22.38605,28.28364 56.5961,44.64539 92.62306,44.30124 v -0.30365 c 162.569,-1.62868 294.26768,-134.65358 294.26768,-297.97623 0,-163.27119 -131.61911,-296.26664 -294.11862,-297.97406 v -0.0115 c -0.63954,-0.006 -1.27808,-0.007 -1.91561,-0.002 -0.41696,-0.002 -0.83392,-0.003 -1.25089,-0.003 z m -77.50968,129.90734 c -11.59135,3.9545 -22.79596,9.17227 -33.40231,15.60296 5.50813,21.9569 17.35631,42.4648 35.19001,58.44211 l -0.2397,0.22399 c 48.6023,52.24358 49.49364,132.33279 2.62868,185.60144 -19.51062,16.45864 -32.32869,38.16626 -38.0312,61.46318 10.89943,6.65972 22.22087,11.95524 33.77596,15.93189 2.80997,-18.82887 12.12716,-36.7223 27.51247,-49.93578 60.63177,-67.72335 60.61465,-170.18823 0.0111,-237.89446 -15.25236,-13.09433 -24.54237,-30.78905 -27.44499,-49.43533 z"
       fill="#ffb14a"
       fill-rule="evenodd"
       fill-opacity="1"
       id="path4"
       style="stroke-width:1.0081" /><path
       d="M 238.02229,70.990012 C 145.14442,71.278683 69.504119,145.95135 67.246983,238.40905 h -0.05137 v 3.72345 c -10e-4,0.35623 0,0.71236 0,1.0696 l -5.04e-4,64.25421 c 8.077992,-10.85533 17.10271,-20.65022 26.881888,-29.33512 L 94.0775,243.1183 c -9.06e-4,-0.30063 -9.06e-4,-0.60137 0,-0.9011 0.23296,-78.91283 63.13929,-142.797242 141.71454,-144.269542 l 0.0101,0.162454 C 417.11529,91.953098 568.78385,234.00556 574.92548,415.74647 581.06913,597.48326 439.33918,749.50251 258.02903,755.65774 h -10e-4 c -6.02782,0.20475 -12.05867,0.24212 -18.08851,0.11501 v -0.2261 C 160.08416,756.31158 94.974881,692.35902 94.09221,612.25974 H 94.08214 V 576.80978 C 84.176864,567.99576 75.168362,558.16763 67.200251,547.47376 v 67.62142 h 0.05741 c 2.344456,91.78712 76.689549,165.61414 167.970069,167.35884 v 0.13214 c 7.90013,0.25934 15.80932,0.25632 23.71549,-0.0121 C 454.77958,775.92644 608.43123,611.11239 601.79609,414.8353 595.2667,221.62057 435.83398,69.366618 244.05142,70.999197 c -1.28311,0.01098 -2.56824,0.0286 -3.85438,0.05338 l 0.001,-0.05509 c -0.72314,-0.007 -1.44527,-0.01007 -2.1674,-0.007 z"
       fill="#003a66"
       fill-rule="evenodd"
       fill-opacity="1"
       id="path5"
       style="stroke-width:1.0081" /><path
       d="m 80.930198,348.87981 c -10.689043,0 -19.354609,8.68178 -19.354609,19.39086 0,10.70909 8.665566,19.39087 19.354609,19.39087 10.689143,0 19.354712,-8.68178 19.354712,-19.39087 0,-10.70908 -8.665569,-19.39086 -19.354712,-19.39086 z m -47.506922,31.14326 c -10.689042,0 -19.354709,8.68188 -19.354709,19.39087 0,10.70908 8.665667,19.39096 19.354709,19.39096 10.689042,0 19.354709,-8.68188 19.354709,-19.39096 0,-10.70899 -8.665667,-19.39087 -19.354709,-19.39087 z m 95.013444,0 c -10.68894,0 -19.35451,8.68188 -19.35451,19.39087 0,10.70908 8.66557,19.39096 19.35451,19.39096 10.68995,0 19.35551,-8.68188 19.35551,-19.39096 0,-10.70899 -8.66556,-19.39087 -19.35551,-19.39087 z m -47.506522,27.9113 c -10.689043,0 -19.354609,8.68188 -19.354609,19.39087 0,10.70908 8.665566,19.39096 19.354609,19.39096 10.689143,0 19.354712,-8.68188 19.354712,-19.39096 0,-10.70899 -8.665569,-19.39087 -19.354712,-19.39087 z m -48.093389,29.96771 c -10.689042,0 -19.354709,8.68188 -19.354709,19.39097 0,10.70898 8.665667,19.39087 19.354709,19.39087 10.689042,0 19.354709,-8.68189 19.354709,-19.39087 0,-10.70909 -8.665667,-19.39097 -19.354709,-19.39097 z m 95.894001,0.58728 c -10.68895,0 -19.35552,8.68188 -19.35552,19.39096 0,10.70999 8.66657,19.39188 19.35552,19.39188 10.68894,0 19.3545,-8.68189 19.3545,-19.39188 0,-10.70908 -8.66556,-19.39096 -19.3545,-19.39096 z m -47.800612,27.61771 c -10.689043,0 -19.354609,8.68188 -19.354609,19.39087 0,10.70908 8.665566,19.39187 19.354609,19.39187 10.689143,0 19.354712,-8.68279 19.354712,-19.39187 0,-10.70899 -8.665569,-19.39087 -19.354712,-19.39087 z"
       fill="#c51010"
       fill-rule="nonzero"
       fill-opacity="1"
       id="path6"
       style="stroke-width:1.0081" /></g></svg>
